<svg xmlns="http://www.w3.org/2000/svg" viewBox="0 0 1200 820"><defs><linearGradient id="w" x1="0" y1="0" x2="1" y2="1"><stop stop-color="#fbf1e5"/><stop offset="1" stop-color="#dcb898"/></linearGradient><filter id="s"><feDropShadow dx="0" dy="26" stdDeviation="28" flood-color="#2e2a27" flood-opacity=".16"/></filter></defs><rect width="1200" height="820" fill="url(#w)"/><rect y="560" width="1200" height="260" fill="#e7d9c8"/><ellipse cx="610" cy="735" rx="430" ry="52" fill="#9d6b4d" opacity=".18"/><g filter="url(#s)"><rect x="168" y="158" width="430" height="328" rx="8" fill="#fffaf3"/><rect x="192" y="182" width="382" height="280" fill="#d99a74"/><path d="M230 409c46-146 131-205 253-186M252 379c75-42 151-51 242-18M266 327c46-35 108-49 185-43" stroke="#2e2a27" stroke-width="5" fill="none"/><circle cx="270" cy="246" r="20" fill="#b35a3c"/><circle cx="335" cy="235" r="18" fill="#44624c"/><circle cx="402" cy="252" r="22" fill="#c4a15d"/><circle cx="468" cy="230" r="16" fill="#faf7f2"/><circle cx="520" cy="272" r="20" fill="#8e4430"/></g><g filter="url(#s)"><rect x="170" y="590" width="690" height="154" rx="52" fill="#fffaf6"/><rect x="222" y="540" width="182" height="132" rx="34" fill="#f4e6d6"/><rect x="622" y="540" width="182" height="132" rx="34" fill="#f4e6d6"/><rect x="258" y="675" width="515" height="74" rx="32" fill="#ead7c4"/></g><rect x="875" y="395" width="34" height="220" rx="17" fill="#435941"/><ellipse cx="850" cy="378" rx="76" ry="34" fill="#6f8b63"/><ellipse cx="905" cy="336" rx="78" ry="36" fill="#587a52"/><ellipse cx="962" cy="390" rx="78" ry="36" fill="#6f8b63"/><rect x="852" y="604" width="96" height="88" rx="14" fill="#b35a3c"/></svg>